# xmcd CD database file
#
# Track frame offsets:
#	150
#	12565
#	23595
#	33023
#	44761
#	56052
#	66934
#	75769
#	86113
#	94609
#	105187
#	115206
#	126147
#	133890
#	142722
#	154538
#
# Disc length: 2207 seconds
#
# Revision: 2
# Processed by: cddbd v1.5.2PL0 Copyright (c) Steve Scherf et al.
# Submitted via: CDex 1.70beta1
#
DISCID=c2089d10
DTITLE=Johnny Cash - The Essential Johnny Cash
DYEAR=1999
DGENRE=Country
TTITLE0=I Walk The Line
TTITLE1=Cry! Cry! Cry!
TTITLE2=Luther Plays The Boogie
TTITLE3=So Doggone Lonesome
TTITLE4=Mean Eyed Cat
TTITLE5=Wide Open Road
TTITLE6=Two Timin' Woman
TTITLE7=There You Go
TTITLE8=Country Boy
TTITLE9=Train Of Love
TTITLE10=Hey Porter
TTITLE11=Belshazar
TTITLE12=If The Good Lord's Willing
TTITLE13=Katy Too
TTITLE14=Thanks A Lot
TTITLE15=I Love You Because
EXTD=YEAR: 1999
EXTT0=
EXTT1=
EXTT2=
EXTT3=
EXTT4=
EXTT5=
EXTT6=
EXTT7=
EXTT8=
EXTT9=
EXTT10=
EXTT11=
EXTT12=
EXTT13=
EXTT14=
EXTT15=
PLAYORDER=
